<mxfile host="app.diagrams.net" modified="2023-07-24T06:09:04.591Z" agent="Mozilla/5.0 (Windows NT 10.0; Win64; x64) AppleWebKit/537.36 (KHTML, like Gecko) Chrome/114.0.0.0 Safari/537.36" etag="uljgGs0LbwdcEyK15nVY" version="21.6.5" type="github">
  <diagram name="Page-1" id="nebeqoRkbiYfqbFeL3QD">
    <mxGraphModel dx="2100" dy="2130" grid="1" gridSize="10" guides="1" tooltips="1" connect="1" arrows="1" fold="1" page="1" pageScale="1" pageWidth="850" pageHeight="1100" math="0" shadow="0">
      <root>
        <mxCell id="0" />
        <mxCell id="1" parent="0" />
        <mxCell id="M4b0cDKv8tkOARRGYxCU-16" style="edgeStyle=orthogonalEdgeStyle;rounded=0;orthogonalLoop=1;jettySize=auto;html=1;" edge="1" parent="1" source="M4b0cDKv8tkOARRGYxCU-1">
          <mxGeometry relative="1" as="geometry">
            <mxPoint x="420.4000244140625" y="179.39999389648438" as="targetPoint" />
          </mxGeometry>
        </mxCell>
        <mxCell id="M4b0cDKv8tkOARRGYxCU-1" value="&lt;h1&gt;&lt;font face=&quot;Times New Roman&quot; style=&quot;font-size: 30px;&quot;&gt;Login&lt;/font&gt;&lt;/h1&gt;" style="rounded=1;whiteSpace=wrap;html=1;" vertex="1" parent="1">
          <mxGeometry x="360" y="60" width="120" height="60" as="geometry" />
        </mxCell>
        <mxCell id="M4b0cDKv8tkOARRGYxCU-17" style="edgeStyle=orthogonalEdgeStyle;rounded=0;orthogonalLoop=1;jettySize=auto;html=1;entryX=0.5;entryY=0;entryDx=0;entryDy=0;" edge="1" parent="1" source="M4b0cDKv8tkOARRGYxCU-2" target="M4b0cDKv8tkOARRGYxCU-3">
          <mxGeometry relative="1" as="geometry" />
        </mxCell>
        <mxCell id="M4b0cDKv8tkOARRGYxCU-2" value="&lt;h1&gt;&lt;font face=&quot;Times New Roman&quot; style=&quot;font-size: 30px;&quot;&gt;Authenticate&lt;/font&gt;&lt;/h1&gt;" style="rounded=1;whiteSpace=wrap;html=1;" vertex="1" parent="1">
          <mxGeometry x="325" y="180" width="200" height="60" as="geometry" />
        </mxCell>
        <mxCell id="M4b0cDKv8tkOARRGYxCU-18" style="edgeStyle=orthogonalEdgeStyle;rounded=0;orthogonalLoop=1;jettySize=auto;html=1;entryX=1;entryY=0.5;entryDx=0;entryDy=0;" edge="1" parent="1" source="M4b0cDKv8tkOARRGYxCU-3" target="M4b0cDKv8tkOARRGYxCU-1">
          <mxGeometry relative="1" as="geometry">
            <Array as="points">
              <mxPoint x="680" y="330" />
              <mxPoint x="680" y="90" />
            </Array>
          </mxGeometry>
        </mxCell>
        <mxCell id="M4b0cDKv8tkOARRGYxCU-19" value="&lt;h2&gt;&lt;font face=&quot;Comic Sans MS&quot;&gt;No&lt;/font&gt;&lt;/h2&gt;" style="edgeLabel;html=1;align=center;verticalAlign=middle;resizable=0;points=[];" vertex="1" connectable="0" parent="M4b0cDKv8tkOARRGYxCU-18">
          <mxGeometry x="0.0648" y="2" relative="1" as="geometry">
            <mxPoint x="22" as="offset" />
          </mxGeometry>
        </mxCell>
        <mxCell id="M4b0cDKv8tkOARRGYxCU-21" style="edgeStyle=orthogonalEdgeStyle;rounded=0;orthogonalLoop=1;jettySize=auto;html=1;exitX=0.5;exitY=1;exitDx=0;exitDy=0;entryX=0.316;entryY=0.34;entryDx=0;entryDy=0;entryPerimeter=0;" edge="1" parent="1" source="M4b0cDKv8tkOARRGYxCU-3" target="M4b0cDKv8tkOARRGYxCU-20">
          <mxGeometry relative="1" as="geometry" />
        </mxCell>
        <mxCell id="M4b0cDKv8tkOARRGYxCU-22" value="&lt;h2&gt;&lt;font face=&quot;Comic Sans MS&quot;&gt;Yes&lt;/font&gt;&lt;/h2&gt;" style="edgeLabel;html=1;align=center;verticalAlign=middle;resizable=0;points=[];" vertex="1" connectable="0" parent="M4b0cDKv8tkOARRGYxCU-21">
          <mxGeometry x="-0.175" y="-3" relative="1" as="geometry">
            <mxPoint x="25" as="offset" />
          </mxGeometry>
        </mxCell>
        <mxCell id="M4b0cDKv8tkOARRGYxCU-3" value="&lt;h2&gt;&lt;font face=&quot;Times New Roman&quot;&gt;Is Valid ?&lt;/font&gt;&lt;/h2&gt;" style="rhombus;whiteSpace=wrap;html=1;" vertex="1" parent="1">
          <mxGeometry x="365" y="290" width="110" height="80" as="geometry" />
        </mxCell>
        <mxCell id="M4b0cDKv8tkOARRGYxCU-43" style="edgeStyle=orthogonalEdgeStyle;rounded=0;orthogonalLoop=1;jettySize=auto;html=1;" edge="1" parent="1" source="M4b0cDKv8tkOARRGYxCU-4">
          <mxGeometry relative="1" as="geometry">
            <mxPoint x="190" y="1070" as="targetPoint" />
          </mxGeometry>
        </mxCell>
        <mxCell id="M4b0cDKv8tkOARRGYxCU-4" value="&lt;h1&gt;&lt;font face=&quot;Times New Roman&quot; style=&quot;font-size: 30px;&quot;&gt;Profile&lt;/font&gt;&lt;/h1&gt;" style="rounded=1;whiteSpace=wrap;html=1;" vertex="1" parent="1">
          <mxGeometry x="260" y="470" width="120" height="60" as="geometry" />
        </mxCell>
        <mxCell id="M4b0cDKv8tkOARRGYxCU-25" style="edgeStyle=orthogonalEdgeStyle;rounded=0;orthogonalLoop=1;jettySize=auto;html=1;" edge="1" parent="1" source="M4b0cDKv8tkOARRGYxCU-5" target="M4b0cDKv8tkOARRGYxCU-6">
          <mxGeometry relative="1" as="geometry" />
        </mxCell>
        <mxCell id="M4b0cDKv8tkOARRGYxCU-44" style="edgeStyle=orthogonalEdgeStyle;rounded=0;orthogonalLoop=1;jettySize=auto;html=1;" edge="1" parent="1" source="M4b0cDKv8tkOARRGYxCU-5">
          <mxGeometry relative="1" as="geometry">
            <mxPoint x="383.20001220703125" y="1078" as="targetPoint" />
          </mxGeometry>
        </mxCell>
        <mxCell id="M4b0cDKv8tkOARRGYxCU-5" value="&lt;h1&gt;&lt;font face=&quot;Times New Roman&quot; style=&quot;font-size: 30px;&quot;&gt;Check new order&lt;/font&gt;&lt;/h1&gt;" style="rounded=1;whiteSpace=wrap;html=1;" vertex="1" parent="1">
          <mxGeometry x="475" y="470" width="250" height="60" as="geometry" />
        </mxCell>
        <mxCell id="M4b0cDKv8tkOARRGYxCU-28" style="edgeStyle=orthogonalEdgeStyle;rounded=0;orthogonalLoop=1;jettySize=auto;html=1;" edge="1" parent="1" source="M4b0cDKv8tkOARRGYxCU-6">
          <mxGeometry relative="1" as="geometry">
            <mxPoint x="1747.6000366210938" y="1081.8002319335938" as="targetPoint" />
          </mxGeometry>
        </mxCell>
        <mxCell id="M4b0cDKv8tkOARRGYxCU-29" style="edgeStyle=orthogonalEdgeStyle;rounded=0;orthogonalLoop=1;jettySize=auto;html=1;" edge="1" parent="1" source="M4b0cDKv8tkOARRGYxCU-6">
          <mxGeometry relative="1" as="geometry">
            <mxPoint x="930.0000610351562" y="578.60009765625" as="targetPoint" />
          </mxGeometry>
        </mxCell>
        <mxCell id="M4b0cDKv8tkOARRGYxCU-6" value="&lt;h1&gt;&lt;font face=&quot;Times New Roman&quot; style=&quot;font-size: 30px;&quot;&gt;Details&lt;/font&gt;&lt;/h1&gt;" style="rounded=1;whiteSpace=wrap;html=1;" vertex="1" parent="1">
          <mxGeometry x="860" y="470" width="140" height="60" as="geometry" />
        </mxCell>
        <mxCell id="M4b0cDKv8tkOARRGYxCU-30" style="edgeStyle=orthogonalEdgeStyle;rounded=0;orthogonalLoop=1;jettySize=auto;html=1;entryX=0.5;entryY=0;entryDx=0;entryDy=0;" edge="1" parent="1" source="M4b0cDKv8tkOARRGYxCU-7" target="M4b0cDKv8tkOARRGYxCU-8">
          <mxGeometry relative="1" as="geometry">
            <Array as="points">
              <mxPoint x="945" y="670" />
              <mxPoint x="945" y="670" />
            </Array>
          </mxGeometry>
        </mxCell>
        <mxCell id="M4b0cDKv8tkOARRGYxCU-45" style="edgeStyle=orthogonalEdgeStyle;rounded=0;orthogonalLoop=1;jettySize=auto;html=1;" edge="1" parent="1" source="M4b0cDKv8tkOARRGYxCU-7">
          <mxGeometry relative="1" as="geometry">
            <mxPoint x="510" y="1070" as="targetPoint" />
          </mxGeometry>
        </mxCell>
        <mxCell id="M4b0cDKv8tkOARRGYxCU-7" value="&lt;h1&gt;&lt;font face=&quot;Times New Roman&quot; style=&quot;font-size: 30px;&quot;&gt;Match Customer OTP&lt;/font&gt;&lt;/h1&gt;" style="rounded=1;whiteSpace=wrap;html=1;" vertex="1" parent="1">
          <mxGeometry x="785" y="580" width="325" height="60" as="geometry" />
        </mxCell>
        <mxCell id="M4b0cDKv8tkOARRGYxCU-31" style="edgeStyle=orthogonalEdgeStyle;rounded=0;orthogonalLoop=1;jettySize=auto;html=1;entryX=0;entryY=0.5;entryDx=0;entryDy=0;" edge="1" parent="1" source="M4b0cDKv8tkOARRGYxCU-8" target="M4b0cDKv8tkOARRGYxCU-9">
          <mxGeometry relative="1" as="geometry" />
        </mxCell>
        <mxCell id="M4b0cDKv8tkOARRGYxCU-32" value="&lt;h2&gt;&lt;font face=&quot;Comic Sans MS&quot;&gt;Yes&lt;/font&gt;&lt;/h2&gt;" style="edgeLabel;html=1;align=center;verticalAlign=middle;resizable=0;points=[];" vertex="1" connectable="0" parent="M4b0cDKv8tkOARRGYxCU-31">
          <mxGeometry x="-0.0178" y="1" relative="1" as="geometry">
            <mxPoint x="-5" y="-29" as="offset" />
          </mxGeometry>
        </mxCell>
        <mxCell id="M4b0cDKv8tkOARRGYxCU-33" style="edgeStyle=orthogonalEdgeStyle;rounded=0;orthogonalLoop=1;jettySize=auto;html=1;" edge="1" parent="1" source="M4b0cDKv8tkOARRGYxCU-8">
          <mxGeometry relative="1" as="geometry">
            <mxPoint x="740" y="920" as="targetPoint" />
          </mxGeometry>
        </mxCell>
        <mxCell id="M4b0cDKv8tkOARRGYxCU-34" value="&lt;h2&gt;&lt;font face=&quot;Comic Sans MS&quot;&gt;No&lt;/font&gt;&lt;/h2&gt;" style="edgeLabel;html=1;align=center;verticalAlign=middle;resizable=0;points=[];" vertex="1" connectable="0" parent="M4b0cDKv8tkOARRGYxCU-33">
          <mxGeometry x="-0.4777" y="-1" relative="1" as="geometry">
            <mxPoint x="-4" y="-29" as="offset" />
          </mxGeometry>
        </mxCell>
        <mxCell id="M4b0cDKv8tkOARRGYxCU-8" value="&lt;h2&gt;&lt;font face=&quot;Times New Roman&quot;&gt;Is Match?&lt;/font&gt;&lt;/h2&gt;" style="rhombus;whiteSpace=wrap;html=1;" vertex="1" parent="1">
          <mxGeometry x="890" y="740" width="110" height="80" as="geometry" />
        </mxCell>
        <mxCell id="M4b0cDKv8tkOARRGYxCU-35" style="edgeStyle=orthogonalEdgeStyle;rounded=0;orthogonalLoop=1;jettySize=auto;html=1;entryX=0.43;entryY=-0.003;entryDx=0;entryDy=0;entryPerimeter=0;" edge="1" parent="1" source="M4b0cDKv8tkOARRGYxCU-9" target="M4b0cDKv8tkOARRGYxCU-11">
          <mxGeometry relative="1" as="geometry" />
        </mxCell>
        <mxCell id="M4b0cDKv8tkOARRGYxCU-36" style="edgeStyle=orthogonalEdgeStyle;rounded=0;orthogonalLoop=1;jettySize=auto;html=1;entryX=0.794;entryY=-0.003;entryDx=0;entryDy=0;entryPerimeter=0;" edge="1" parent="1" source="M4b0cDKv8tkOARRGYxCU-9" target="M4b0cDKv8tkOARRGYxCU-12">
          <mxGeometry relative="1" as="geometry">
            <Array as="points">
              <mxPoint x="1343" y="870" />
              <mxPoint x="833" y="870" />
            </Array>
          </mxGeometry>
        </mxCell>
        <mxCell id="M4b0cDKv8tkOARRGYxCU-37" style="edgeStyle=orthogonalEdgeStyle;rounded=0;orthogonalLoop=1;jettySize=auto;html=1;entryX=0.5;entryY=0;entryDx=0;entryDy=0;" edge="1" parent="1" source="M4b0cDKv8tkOARRGYxCU-9" target="M4b0cDKv8tkOARRGYxCU-10">
          <mxGeometry relative="1" as="geometry" />
        </mxCell>
        <mxCell id="M4b0cDKv8tkOARRGYxCU-9" value="&lt;h1&gt;&lt;font face=&quot;Times New Roman&quot; style=&quot;font-size: 30px;&quot;&gt;Select Action&lt;/font&gt;&lt;/h1&gt;" style="rounded=1;whiteSpace=wrap;html=1;" vertex="1" parent="1">
          <mxGeometry x="1180" y="750" width="325" height="60" as="geometry" />
        </mxCell>
        <mxCell id="M4b0cDKv8tkOARRGYxCU-38" style="edgeStyle=orthogonalEdgeStyle;rounded=0;orthogonalLoop=1;jettySize=auto;html=1;" edge="1" parent="1" source="M4b0cDKv8tkOARRGYxCU-10">
          <mxGeometry relative="1" as="geometry">
            <mxPoint x="1552.3999633789062" y="1085" as="targetPoint" />
          </mxGeometry>
        </mxCell>
        <mxCell id="M4b0cDKv8tkOARRGYxCU-10" value="&lt;h1&gt;&lt;font face=&quot;Times New Roman&quot; style=&quot;font-size: 30px;&quot;&gt;Details&lt;/font&gt;&lt;/h1&gt;" style="rounded=1;whiteSpace=wrap;html=1;" vertex="1" parent="1">
          <mxGeometry x="1390" y="930" width="325" height="60" as="geometry" />
        </mxCell>
        <mxCell id="M4b0cDKv8tkOARRGYxCU-39" style="edgeStyle=orthogonalEdgeStyle;rounded=0;orthogonalLoop=1;jettySize=auto;html=1;" edge="1" parent="1" source="M4b0cDKv8tkOARRGYxCU-11">
          <mxGeometry relative="1" as="geometry">
            <mxPoint x="1142.7999877929688" y="1081.7999877929688" as="targetPoint" />
          </mxGeometry>
        </mxCell>
        <mxCell id="M4b0cDKv8tkOARRGYxCU-11" value="&lt;h1&gt;&lt;font face=&quot;Times New Roman&quot; style=&quot;font-size: 30px;&quot;&gt;Not Pick Up&lt;/font&gt;&lt;/h1&gt;" style="rounded=1;whiteSpace=wrap;html=1;" vertex="1" parent="1">
          <mxGeometry x="980" y="930" width="325" height="60" as="geometry" />
        </mxCell>
        <mxCell id="M4b0cDKv8tkOARRGYxCU-40" style="edgeStyle=orthogonalEdgeStyle;rounded=0;orthogonalLoop=1;jettySize=auto;html=1;" edge="1" parent="1" source="M4b0cDKv8tkOARRGYxCU-12">
          <mxGeometry relative="1" as="geometry">
            <mxPoint x="736.3999938964844" y="1081" as="targetPoint" />
          </mxGeometry>
        </mxCell>
        <mxCell id="M4b0cDKv8tkOARRGYxCU-12" value="&lt;h1&gt;&lt;font face=&quot;Times New Roman&quot; style=&quot;font-size: 30px;&quot;&gt;Not Deliver&lt;/font&gt;&lt;/h1&gt;" style="rounded=1;whiteSpace=wrap;html=1;" vertex="1" parent="1">
          <mxGeometry x="575" y="930" width="325" height="60" as="geometry" />
        </mxCell>
        <mxCell id="M4b0cDKv8tkOARRGYxCU-50" style="edgeStyle=orthogonalEdgeStyle;rounded=0;orthogonalLoop=1;jettySize=auto;html=1;entryX=0.5;entryY=0;entryDx=0;entryDy=0;" edge="1" parent="1" source="M4b0cDKv8tkOARRGYxCU-13" target="M4b0cDKv8tkOARRGYxCU-46">
          <mxGeometry relative="1" as="geometry" />
        </mxCell>
        <mxCell id="M4b0cDKv8tkOARRGYxCU-13" value="&lt;h1&gt;&lt;font face=&quot;Times New Roman&quot; style=&quot;font-size: 30px;&quot;&gt;Logout&lt;/font&gt;&lt;/h1&gt;" style="rounded=1;whiteSpace=wrap;html=1;" vertex="1" parent="1">
          <mxGeometry x="920" y="1150" width="325" height="60" as="geometry" />
        </mxCell>
        <mxCell id="M4b0cDKv8tkOARRGYxCU-15" style="edgeStyle=orthogonalEdgeStyle;rounded=0;orthogonalLoop=1;jettySize=auto;html=1;" edge="1" parent="1" source="M4b0cDKv8tkOARRGYxCU-14">
          <mxGeometry relative="1" as="geometry">
            <mxPoint x="414.00006103515625" y="61.79997253417969" as="targetPoint" />
          </mxGeometry>
        </mxCell>
        <mxCell id="M4b0cDKv8tkOARRGYxCU-14" value="" style="ellipse;whiteSpace=wrap;html=1;aspect=fixed;fillColor=#190033;" vertex="1" parent="1">
          <mxGeometry x="400" y="-50" width="30" height="30" as="geometry" />
        </mxCell>
        <mxCell id="M4b0cDKv8tkOARRGYxCU-23" style="edgeStyle=orthogonalEdgeStyle;rounded=0;orthogonalLoop=1;jettySize=auto;html=1;entryX=0.567;entryY=-0.057;entryDx=0;entryDy=0;entryPerimeter=0;" edge="1" parent="1" source="M4b0cDKv8tkOARRGYxCU-20" target="M4b0cDKv8tkOARRGYxCU-4">
          <mxGeometry relative="1" as="geometry">
            <Array as="points">
              <mxPoint x="330" y="440" />
              <mxPoint x="328" y="440" />
            </Array>
          </mxGeometry>
        </mxCell>
        <mxCell id="M4b0cDKv8tkOARRGYxCU-24" style="edgeStyle=orthogonalEdgeStyle;rounded=0;orthogonalLoop=1;jettySize=auto;html=1;" edge="1" parent="1" source="M4b0cDKv8tkOARRGYxCU-20" target="M4b0cDKv8tkOARRGYxCU-5">
          <mxGeometry relative="1" as="geometry">
            <Array as="points">
              <mxPoint x="550" y="430" />
              <mxPoint x="550" y="430" />
            </Array>
          </mxGeometry>
        </mxCell>
        <mxCell id="M4b0cDKv8tkOARRGYxCU-20" value="" style="line;strokeWidth=4;html=1;perimeter=backbonePerimeter;points=[];outlineConnect=0;" vertex="1" parent="1">
          <mxGeometry x="320" y="400" width="310" height="10" as="geometry" />
        </mxCell>
        <mxCell id="M4b0cDKv8tkOARRGYxCU-42" style="edgeStyle=orthogonalEdgeStyle;rounded=0;orthogonalLoop=1;jettySize=auto;html=1;" edge="1" parent="1" source="M4b0cDKv8tkOARRGYxCU-27">
          <mxGeometry relative="1" as="geometry">
            <mxPoint x="1064.3999633789062" y="1151.4000244140625" as="targetPoint" />
            <Array as="points">
              <mxPoint x="1064" y="1095" />
              <mxPoint x="1064" y="1095" />
            </Array>
          </mxGeometry>
        </mxCell>
        <mxCell id="M4b0cDKv8tkOARRGYxCU-27" value="" style="line;strokeWidth=4;html=1;perimeter=backbonePerimeter;points=[];outlineConnect=0;" vertex="1" parent="1">
          <mxGeometry x="60" y="1080" width="1700" height="10" as="geometry" />
        </mxCell>
        <mxCell id="M4b0cDKv8tkOARRGYxCU-46" value="" style="ellipse;html=1;shape=endState;fillColor=#000000;strokeColor=#ff0000;" vertex="1" parent="1">
          <mxGeometry x="1047.5" y="1310" width="70" height="60" as="geometry" />
        </mxCell>
      </root>
    </mxGraphModel>
  </diagram>
</mxfile>
